HIERARCHY
ROOT Hips
{
    OFFSET 0.0 0.0 0.0
    CHANNELS 6 Xposition Yposition Zposition Zrotation Xrotation Yrotation
    JOINT LeftHipJoint
    {
        OFFSET 0.1 0.0 0.0
        CHANNELS 3 Zrotation Xrotation Yrotation
        JOINT LeftUpLeg
        {
            OFFSET 125.25935893183491 0.0 0.0
            CHANNELS 3 Zrotation Xrotation Yrotation
            JOINT LeftLeg
            {
                OFFSET 0.0 0.0 -416.831723546903
                CHANNELS 3 Zrotation Xrotation Yrotation
                JOINT LeftFoot
                {
                    OFFSET 0.0 0.0 -407.95481015074466
                    CHANNELS 3 Zrotation Xrotation Yrotation
                    End Site
                    {
                        OFFSET 0.0 -0.1 0.0
                    }
                }
            }
        }
    }
    JOINT LowerBack
    {
        OFFSET 0.0 0.0 0.1
        CHANNELS 3 Zrotation Xrotation Yrotation
        JOINT Spine
        {
            OFFSET 0.0 0.0 220.28783110687024
            CHANNELS 3 Zrotation Xrotation Yrotation
            JOINT Spine1
            {
                OFFSET 0.0 0.0 250.19097316587806
                CHANNELS 3 Zrotation Xrotation Yrotation
                JOINT LeftShoulder
                {
                    OFFSET 0.1 0.0 0.0
                    CHANNELS 3 Zrotation Xrotation Yrotation
                    JOINT LeftArm
                    {
                        OFFSET 141.06258840333174 0.0 0.0
                        CHANNELS 3 Zrotation Xrotation Yrotation
                        JOINT LeftForeArm
                        {
                            OFFSET 259.6272555528701 0.0 0.0
                            CHANNELS 3 Zrotation Xrotation Yrotation
                            JOINT LeftHand
                            {
                                OFFSET 241.86635638548785 0.0 0.0
                                CHANNELS 3 Zrotation Xrotation Yrotation
                                End Site
                                {
                                    OFFSET 0.1 0.0 0.0
                                }
                            }
                        }
                    }
                }
                JOINT Neck
                {
                    OFFSET 0.0 0.0 0.1
                    CHANNELS 3 Zrotation Xrotation Yrotation
                    JOINT Neck1
                    {
                        OFFSET 0.0 0.0 104.19502535742411
                        CHANNELS 3 Zrotation Xrotation Yrotation
                        End Site
                        {
                            OFFSET 0.0 0.0 117.60325641060302
                        }
                    }
                }
                JOINT RightShoulder
                {
                    OFFSET -0.1 0.0 0.0
                    CHANNELS 3 Zrotation Xrotation Yrotation
                    JOINT RightArm
                    {
                        OFFSET -141.06258840333174 0.0 0.0
                        CHANNELS 3 Zrotation Xrotation Yrotation
                        JOINT RightForeArm
                        {
                            OFFSET -259.6272555528701 0.0 0.0
                            CHANNELS 3 Zrotation Xrotation Yrotation
                            JOINT RightHand
                            {
                                OFFSET -241.86635638548785 0.0 0.0
                                CHANNELS 3 Zrotation Xrotation Yrotation
                                End Site
                                {
                                    OFFSET -0.1 0.0 0.0
                                }
                            }
                        }
                    }
                }
            }
        }
    }
    JOINT RightHipJoint
    {
        OFFSET -0.1 0.0 0.0
        CHANNELS 3 Zrotation Xrotation Yrotation
        JOINT RightUpLeg
        {
            OFFSET -125.25935893183491 0.0 0.0
            CHANNELS 3 Zrotation Xrotation Yrotation
            JOINT RightLeg
            {
                OFFSET 0.0 0.0 -416.831723546903
                CHANNELS 3 Zrotation Xrotation Yrotation
                JOINT RightFoot
                {
                    OFFSET 0.0 0.0 -407.95481015074466
                    CHANNELS 3 Zrotation Xrotation Yrotation
                    End Site
                    {
                        OFFSET 0.0 -0.1 0.0
                    }
                }
            }
        }
    }
}
MOTION
Frames: 11
Frame Time: 0.03333333333333333
0.0 0.0 825.4174449602142 23.531754010528378 4.290137810834362 3.440224482325991 0.0 0.0 -2.981770013872047e-16 -0.03657491516512757 -17.585607305109125 1.5601863784473058 0.7670726260814992 24.417193065504264 -0.7019402320719862 6.207055731633036e-33 -1.789062008323228e-15 3.9756933518293955e-16 0.0 0.0 -2.981770013872047e-16 0.01038187260762177 4.734900540301967 1.4023082657723414 -0.7602648320481699 -7.938023308783943e-16 -2.0405565092076654e-16 0.0 0.0 -3.975693351829396e-16 -31.298802400210825 15.930995928912735 78.38267236105824 -48.27718286901764 -5.527858491143678e-15 1.2335385339705963e-14 0.0 0.0 -2.782985346280577e-15 0.0 0.0 -3.975693351829396e-16 -8.663969990038636 1.5366885877699936 -10.786112088602717 0.0 0.0 -3.975693351829396e-16 28.02987950936988 16.210707226475115 -79.74845407473245 49.6069111070562 -7.327201917852958e-15 6.889948684337703e-15 0.0 0.0 0.0 0.0 0.0 -2.981770013872047e-16 -0.04095466903731436 -16.79869762667185 -3.4958765140238217 -1.758111989417177 27.573200254138715 0.7624883708736241 0.0 0.0 3.975693351829396e-16
0.0 0.0 825.4174449602142 23.71804459461025 4.376738635779669 3.3673318611763614 -8.620910738379216e-34 -4.969616689786745e-16 -1.987846675914698e-16 -0.02469128076549754 -17.68766711095842 1.6383581967213392 0.7831643347105772 24.384752150246733 -0.7443195638324352 1.4483130040477084e-32 1.3914926731402886e-15 -1.1927080055488188e-15 -8.620910738379216e-34 -4.969616689786745e-16 -1.987846675914698e-16 0.00722470373535866 4.748086333631859 1.4520459629256441 -0.6621977737375757 3.849267370255552e-16 2.188892280539235e-15 0.0 0.0 -1.987846675914698e-16 -30.96078657654997 15.99602112068653 78.29219544283826 -48.89004144626341 -8.55514893617447e-15 1.8820398192786905e-14 6.620859447075238e-32 3.1805546814635176e-15 -2.3854160110976384e-15 0.0 0.0 -1.987846675914698e-16 -8.732401398006791 1.3492900298968353 -10.762195115519578 0.0 0.0 -1.987846675914698e-16 27.472539688127007 15.90915337124936 -79.37960125279727 50.36485284983218 5.4133262799805e-15 1.1513068569888063e-14 0.0 0.0 1.5902773407317582e-15 -8.620910738379216e-34 -4.969616689786745e-16 -1.987846675914698e-16 -0.02919328577693927 -16.75611736466825 -3.4112068516202454 -1.722449003631943 27.406208101779264 0.7275634326021094 1.1034765745125397e-32 -1.5902773407317584e-15 7.951386703658792e-16
0.0 0.0 825.4174449602142 23.872966388073394 4.532079694993883 3.2213967542865043 0.0 0.0 -2.981770013872047e-16 0.007157703806549021 -17.938653869635257 1.8602287011623313 0.8417713658179755 24.527092225465374 -0.8545474297458829 -3.1805546814635164e-15 -1.5902773407317582e-15 7.95138670365879e-16 0.0 0.0 -2.981770013872047e-16 -0.0010816473783394705 4.771771609962526 1.5563900574754823 -0.48408963018195283 3.9504651018822933e-16 5.980281997456024e-16 0.0 0.0 -1.987846675914698e-16 -30.76488659014515 16.207063785296537 78.23929558824796 -49.72963911836207 4.804071078896566e-15 -1.793027332068654e-14 -3.1805546814635168e-15 -2.2069531490250793e-32 7.951386703658792e-16 0.0 0.0 -1.987846675914698e-16 -8.894336491903168 1.1684272521480963 -10.694391200116012 0.0 0.0 -1.987846675914698e-16 27.020910669155754 15.55288163294287 -78.9545323665228 51.06106668631476 9.210343084041916e-15 4.1422273945680366e-14 -1.7655625192200634e-31 -6.3611093629270335e-15 -3.1805546814635168e-15 0.0 0.0 -2.981770013872047e-16 0.0010314610021508995 -16.948693637439717 -3.1816969259851824 -1.6668030184095852 27.539693808619635 0.614841097972177 0.0 0.0 3.975693351829396e-16
0.0 0.0 825.4174449602142 24.13264928099881 4.6565039204997385 3.062119210651563 0.0 0.0 -1.987846675914698e-16 0.05473334368495931 -18.158201814098284 2.1016113596308417 0.888545471888573 24.680749746362668 -0.9713592179498733 3.1805546814635164e-15 0.0 0.0 0.0 0.0 -1.987846675914698e-16 -0.013075654978790329 4.7286697354007226 1.6884689351845577 -0.24392770717861018 -2.3849874598536113e-15 -2.038619788274239e-16 0.0 0.0 -5.963540027744094e-16 -30.584764894455574 16.156029454212444 78.09949948783414 -50.56793948594259 -8.988801387442916e-15 1.1582958229870233e-14 0.0 0.0 -1.987846675914698e-15 0.0 0.0 -5.963540027744094e-16 -9.233921375143371 0.9700561237966463 -10.624122454241272 0.0 0.0 -5.963540027744094e-16 26.498234813745785 14.650162184924095 -78.34732196602148 51.28113887247359 -9.17311401516061e-16 -3.131139670671462e-14 0.0 0.0 0.0 0.0 0.0 -1.987846675914698e-16 0.045442380514536286 -16.983320262986357 -2.9582879669278617 -1.640116358240546 27.695286759749905 0.5574739554862431 2.2069531490250793e-32 -3.1805546814635168e-15 7.951386703658792e-16
0.0 0.0 825.4174449602142 24.370879234153378 4.810777711508317 2.9585417834381356 0.0 0.0 2.981770013872047e-16 0.10436465690400551 -18.469067971704124 2.283715095608993 0.9069792123264921 24.817425348839073 -1.0760158833170135 0.0 0.0 -3.975693351829396e-16 0.0 0.0 2.981770013872047e-16 -0.025250291913521978 4.744893821647016 1.7739939951593875 0.21291929558704012 5.974610410037515e-16 5.952449056756673e-16 0.0 0.0 1.987846675914698e-16 -30.65055059216857 16.243458473849184 78.01911057678387 -51.2174513305658 -9.247546299014064e-16 -1.2787832506073602e-14 0.0 0.0 7.951386703658794e-16 0.0 0.0 1.987846675914698e-16 -9.615165354320146 0.8129737229789358 -10.564224429482516 0.0 0.0 1.987846675914698e-16 26.123815504728604 13.52518447036863 -77.49585390030025 51.504118504657384 -9.975890869737092e-15 1.2809692318284095e-15 0.0 0.0 0.0 0.0 0.0 2.981770013872047e-16 0.09070201665626561 -17.067760722697805 -2.8069346911186646 -1.6355874007882125 27.618218181639296 0.5038152181472022 0.0 0.0 0.0
0.0 0.0 825.4174449602142 24.617876861492345 4.917053668304706 2.9119577619304353 3.1805546814635164e-15 -7.951386703658791e-16 3.975693351829396e-16 0.14132297094883242 -18.688684818957324 2.3870310316779175 0.9079586843212226 24.940877002811714 -1.159112032872986 0.0 0.0 0.0 3.1805546814635164e-15 -7.951386703658791e-16 3.975693351829396e-16 -0.03386237556192218 4.719588619102235 1.782894142836679 0.4846117286030181 -2.186611789870837e-15 9.247313201401583e-18 0.0 0.0 0.0 -30.897266667594575 16.62987683453974 78.08722246475914 -51.98994145681862 -4.192641596112633e-16 -6.396887946235628e-15 0.0 0.0 -1.5902773407317584e-15 0.0 0.0 0.0 -9.904072490705131 0.6889966651227089 -10.507358687892062 0.0 0.0 0.0 25.938932097810643 13.006027271137295 -76.91242912438929 51.49894580364335 1.5842137978370744e-15 -1.1357699225894125e-14 0.0 0.0 1.5902773407317584e-15 3.1805546814635164e-15 -7.951386703658791e-16 3.975693351829396e-16 0.12351154617755894 -17.07940375506318 -2.725839317582728 -1.6400333939646579 27.458547349180787 0.5215809116450768 0.0 0.0 3.975693351829396e-16
0.0 0.0 825.4174449602142 24.894063333053253 5.0072649908613345 2.866688627467116 1.7241821476758432e-34 -9.939233379573489e-17 1.9878466759146977e-16 0.15081387859428902 -18.87432891066475 2.4987699978622997 0.949570560065633 24.976988325735864 -1.1863766452860904 0.0 0.0 7.951386703658792e-16 1.7241821476758432e-34 -9.939233379573489e-17 1.9878466759146977e-16 -0.03600237634343266 4.741384742771006 1.7858069225178048 0.830103573091758 4.0331885408454844e-16 7.922378325534253e-16 0.0 0.0 -7.951386703658792e-16 -31.25024507428554 16.959996922026715 78.30933604309097 -52.22297862179337 1.0261316078560685e-14 -6.482175177113453e-15 0.0 0.0 1.5902773407317584e-15 0.0 0.0 -7.951386703658792e-16 -10.207809482006454 0.5882748406688232 -10.451395321795287 0.0 0.0 -7.951386703658792e-16 25.600693505367015 12.317430824891982 -76.34702817510683 51.420723345054085 -1.2842495722107119e-14 2.6535035364422913e-15 0.0 0.0 1.5902773407317584e-15 1.7241821476758432e-34 -9.939233379573489e-17 1.9878466759146977e-16 0.13151732381367742 -17.13844614056596 -2.655325131678375 -1.6115264729669796 27.38806683137336 0.3697082420713324 0.0 0.0 0.0
0.0 0.0 825.4174449602142 25.199572883121494 5.068766217988183 2.7871525996605993 -3.103527865816518e-33 -8.945310041616142e-16 -3.975693351829396e-16 0.16816908295267136 -19.146857058470573 2.655700050389089 1.0077683687755936 25.127354312020643 -1.252532906223054 0.0 0.0 -7.951386703658792e-16 -3.103527865816518e-33 -8.945310041616142e-16 -3.975693351829396e-16 -0.040140330933084944 4.803277162259353 1.8526050018289435 0.9225073353104603 2.2057638214935573e-15 2.367735657161645e-15 0.0 0.0 0.0 -31.290208781914068 17.166619701158783 78.39335956817128 -52.53464335213607 -1.2353330755741985e-14 1.7844274167000932e-14 0.0 0.0 -3.975693351829396e-16 0.0 0.0 0.0 -10.416975687475464 0.4121839250544438 -10.422671834835608 0.0 0.0 0.0 25.23195300654498 12.113328159631278 -75.99181740839265 51.41330675639131 9.657264561995465e-15 2.0060351870962325e-14 8.827812596100317e-32 -6.3611093629270335e-15 1.5902773407317584e-15 -3.103527865816518e-33 -8.945310041616142e-16 -3.975693351829396e-16 0.14662044051644746 -17.307526721584 -2.5479213419781 -1.5845265493420002 27.459847927851033 0.28847936689819415 0.0 0.0 3.975693351829396e-16
0.0 0.0 825.4174449602142 25.399821490833624 5.043982335405206 2.7988146135735272 0.0 0.0 1.9878466759146977e-16 0.17309951265819287 -19.262287148376306 2.697626954014148 1.0346042568175124 25.405463939017068 -1.231719704069403 0.0 -1.5902773407317582e-15 0.0 0.0 0.0 1.9878466759146977e-16 -0.04181175595913414 4.886936207693306 1.8735116931081928 0.9686626019687711 -2.0885961590084375e-16 -1.1909850508782404e-15 0.0 0.0 3.975693351829396e-16 -31.44000945661804 17.16260136033276 78.30931840576521 -52.87316834148004 6.726024937983578e-15 -1.3527794198566625e-14 0.0 0.0 -3.1805546814635168e-15 0.0 0.0 3.975693351829396e-16 -10.524002630198085 0.3174130357229553 -10.588281915958229 0.0 0.0 3.975693351829396e-16 25.213133579918562 12.026038996030765 -75.62419338365815 51.84221901130916 5.721161321867558e-15 -2.780651984029035e-15 0.0 0.0 -1.5902773407317584e-15 0.0 0.0 1.9878466759146977e-16 0.15028498931930404 -17.309705823048105 -2.563039935162358 -1.6027887587547534 27.520962411252484 0.25859594759255733 0.0 0.0 -3.975693351829396e-16
0.0 0.0 825.4174449602142 25.582190536814494 5.043039415830838 2.8152455264276095 0.0 0.0 -1.987846675914698e-16 0.20361966801878204 -19.290232962301754 2.6760701260483994 0.9779319408735326 25.3481514871839 -1.2047081450653727 0.0 0.0 -3.975693351829396e-16 0.0 0.0 -1.987846675914698e-16 -0.049859474038433674 4.946570499328885 1.809435058012643 0.830946888738602 -2.38247039491199e-15 4.1485628794399846e-16 0.0 0.0 0.0 -31.414620049128544 16.94481362913154 78.11052955840776 -53.09939536621014 7.82274868469204e-15 -1.4244836002112392e-15 0.0 0.0 -7.951386703658794e-16 0.0 0.0 0.0 -10.274796696276091 0.26667780451990236 -10.643484197886336 0.0 0.0 0.0 24.995359703704608 12.509245726352761 -75.28546235849313 53.25628082688042 1.7074902035997075e-14 5.670751191689403e-15 0.0 0.0 0.0 0.0 0.0 -1.987846675914698e-16 0.17579054674268416 -17.14161744263049 -2.5661660186761788 -1.6160524354512982 27.010141915802745 0.21139541922938265 0.0 0.0 3.975693351829396e-16
0.0 0.0 825.4174449602142 25.684704246148335 5.076114721229494 2.7675731368622905 0.0 0.0 0.0 0.23301434248110806 -19.33089968510726 2.775822580515619 0.9857284909534376 25.39287816811521 -1.2981008403817984 0.0 0.0 -7.951386703658792e-16 0.0 0.0 0.0 -0.057043733278007394 4.950710009495477 1.804479164689409 0.7700909926672722 -9.939008939661689e-16 6.679424341143282e-18 0.0 0.0 0.0 -31.25249349969152 17.055285345874047 78.07891653421275 -53.132575142076604 7.467702112327151e-15 -7.822968976489681e-15 0.0 0.0 -1.987846675914698e-15 0.0 0.0 0.0 -10.078946556973678 0.11179432752212747 -10.611633294695169 0.0 0.0 0.0 24.931861913833213 13.242327715286768 -75.07707542090778 54.287188366546836 -5.8041574001579076e-15 -1.1321069127192186e-14 0.0 0.0 3.1805546814635168e-15 0.0 0.0 0.0 0.20093850795793355 -17.1197309531919 -2.5246181770018747 -1.6204011672772825 26.747912111430146 0.2417706855194708 0.0 0.0 0.0
